<svg width="240" height="62" viewBox="0 0 240 62" fill="none" xmlns="http://www.w3.org/2000/svg">
<g clip-path="url(#clip0)">
<path d="M125.599 6.47424H130.437V26.5837H125.03V14.6615L119.471 21.7043L113.926 14.6615V26.5837H108.523V6.47424H113.358L119.473 14.3833L125.599 6.47424ZM141.205 18.5491H148.894V14.2295H141.205V11.0732H151.172V6.47424H135.801V26.5837H151.448V21.9848H141.205V18.5491ZM172.239 21.7043H174.52V26.5826H153.453V21.7043H154.593L154.906 21.3873C155.04 21.2524 155.261 20.9178 155.587 20.3908C155.917 19.84 156.203 19.2637 156.441 18.6677C156.745 17.8523 156.976 17.0117 157.13 16.1557C157.342 15.0492 157.446 13.925 157.441 12.7987V6.47424H172.239V21.7043ZM166.835 11.3748H162.848V12.7987C162.853 13.9198 162.753 15.0389 162.549 16.1416C162.401 17.01 162.164 17.8608 161.839 18.6806C161.594 19.2614 161.318 19.8288 161.011 20.3802C160.815 20.7508 160.574 21.0964 160.294 21.4096L160.002 21.7054H166.839L166.835 11.3748ZM183.132 17.684V6.47424H177.728V26.5837H182.4L190.96 15.3798V26.5837H196.358V6.47424H191.661L183.132 17.684ZM239.999 26.5896H234.162L232.733 22.2865H226.188L224.769 26.5896H213.531L208.556 18.9764L206.413 21.4096V26.5837H201.008V6.47424H206.413V14.2295L212.958 6.47424H219.227L212.112 14.8082L219.249 25.748L226.479 6.47776H232.456L239.999 26.5896ZM231.316 17.9798L229.465 12.0791L227.618 17.9704L231.316 17.9798Z" fill="#333333"/>
<path d="M115.648 37.2687H117.04V44.6743H115.468V39.7372L113.11 42.7692L110.754 39.7583V44.6743H109.183V37.2687H110.603L113.117 40.4967L115.648 37.2687Z" fill="#333333"/>
<path d="M124.38 43.2493V44.6743H118.871V37.2687H124.272V38.6996H120.448V40.1821H123.432V41.6071H120.448V43.2504L124.38 43.2493Z" fill="#333333"/>
<path d="M125.609 43.2493C125.637 43.2223 125.677 43.1777 125.728 43.1178C125.83 42.9857 125.923 42.8474 126.007 42.7035C126.146 42.4798 126.265 42.2441 126.362 41.9992C126.485 41.6584 126.577 41.3077 126.639 40.951C126.724 40.4894 126.766 40.0211 126.764 39.5518V37.2688H131.85V43.2493H132.746V46.2085H131.169V44.6743H126.767V46.2085H125.195V43.2493H125.609ZM128.212 40.9404C128.152 41.3013 128.056 41.6553 127.924 41.9969C127.828 42.236 127.716 42.4689 127.59 42.6941C127.509 42.8434 127.414 42.9852 127.308 43.1178L127.179 43.247H130.271V38.6997H128.331V39.546C128.334 40.0134 128.294 40.48 128.213 40.9404H128.212Z" fill="#333333"/>
<path d="M138.957 44.6744V39.9697L135.343 44.6744H133.976V37.2688H135.553V41.9793L139.167 37.2688H140.528V44.6744H138.957Z" fill="#333333"/>
<path d="M142.358 37.2688H143.935V43.2493H146.916V37.2688H148.488V43.2493H149.378V46.2085H147.806V44.6743H142.354L142.358 37.2688Z" fill="#333333"/>
<path d="M155.598 44.6744V39.9697L151.984 44.6744H150.617V37.2688H152.194V41.9793L155.807 37.2688H157.17V44.6744H155.598Z" fill="#333333"/>
<path d="M165.291 44.6744H163.719V41.6589H160.576V44.6744H159V37.2688H160.576V40.2327H163.719V37.2688H165.291V44.6744Z" fill="#333333"/>
<path d="M171.768 37.2664C172.07 37.348 172.359 37.4726 172.626 37.6362C172.831 37.7684 173.029 37.9131 173.217 38.0693C173.353 38.1783 173.478 38.3014 173.587 38.4367L173.706 38.5917L172.707 39.5976C172.687 39.5706 172.659 39.5319 172.623 39.4803C172.551 39.3897 172.472 39.3046 172.387 39.2255C172.262 39.1056 172.125 38.999 171.979 38.9074C171.797 38.8006 171.602 38.7159 171.4 38.6551C170.977 38.5197 170.524 38.5022 170.092 38.6047C169.66 38.7072 169.264 38.9256 168.948 39.2361C168.504 39.7064 168.257 40.3266 168.257 40.971C168.257 41.6154 168.504 42.2356 168.948 42.7059C169.171 42.9337 169.439 43.1132 169.735 43.2332C170.031 43.3532 170.349 43.411 170.669 43.4031C170.928 43.4039 171.186 43.3663 171.433 43.2916C171.646 43.2314 171.851 43.1429 172.04 43.0287C172.189 42.9359 172.33 42.8332 172.465 42.7212C172.564 42.6424 172.653 42.5522 172.731 42.4524L172.814 42.3444L173.76 43.3515C173.721 43.408 173.679 43.4625 173.635 43.5147C173.517 43.6391 173.392 43.7567 173.261 43.8668C172.839 44.2498 172.329 44.5254 171.776 44.6697C171.417 44.7771 171.044 44.8313 170.669 44.8305C170.143 44.8424 169.62 44.7481 169.132 44.5531C168.644 44.3582 168.201 44.0668 167.83 43.6966C167.465 43.3409 167.174 42.9164 166.976 42.448C166.778 41.9796 166.676 41.4767 166.676 40.9686C166.676 40.4606 166.778 39.9577 166.976 39.4893C167.174 39.0209 167.465 38.5964 167.83 38.2407C168.343 37.7506 168.975 37.4022 169.666 37.2305C170.356 37.0587 171.08 37.0695 171.764 37.2617L171.768 37.2664Z" fill="#333333"/>
<path d="M176.527 40.4968L179.409 37.2688H181.242L178.521 40.336L181.455 44.6791H179.621L177.472 41.5098L176.526 42.5662V44.6791H174.95V37.2688H176.526L176.527 40.4968Z" fill="#333333"/>
<path d="M187.461 44.6744V39.9697L183.848 44.6744H182.48V37.2688H184.058V41.9793L187.672 37.2688H189.033V44.6744H187.461Z" fill="#333333"/>
<path d="M195.844 44.6745V39.9699L192.231 44.6745H190.863V37.269H192.44V41.9795L196.055 37.269H197.416V44.6745H195.844ZM194.564 35.2395C194.624 35.1798 194.67 35.1087 194.701 35.0307C194.732 34.9526 194.747 34.8691 194.744 34.7853H195.793C195.801 35.003 195.763 35.22 195.683 35.4229C195.603 35.6257 195.482 35.8102 195.327 35.9649C194.996 36.2627 194.564 36.4276 194.117 36.4276C193.669 36.4276 193.238 36.2627 192.906 35.9649C192.751 35.8102 192.63 35.6257 192.55 35.4229C192.47 35.22 192.433 35.003 192.44 34.7853H193.484C193.482 34.8692 193.496 34.9527 193.527 35.0308C193.558 35.1089 193.605 35.18 193.664 35.2395C193.785 35.3555 193.946 35.4203 194.114 35.4203C194.282 35.4203 194.444 35.3555 194.564 35.2395Z" fill="#333333"/>
<path d="M110.128 57.0556H108.336L110.906 53.1926L108.54 49.65H110.327L111.902 52.0305L113.473 49.65H115.255L112.889 53.1926L115.458 57.0556H113.684L111.902 54.3594L110.128 57.0556Z" fill="#333333"/>
<path d="M116.852 50.6265C117.613 49.9003 118.628 49.4948 119.684 49.4948C120.739 49.4948 121.754 49.9003 122.515 50.6265C122.88 50.9821 123.171 51.4065 123.369 51.8748C123.567 52.3431 123.669 52.8459 123.669 53.3538C123.669 53.8618 123.567 54.3646 123.369 54.8329C123.171 55.3012 122.88 55.7256 122.515 56.0812C121.755 56.8087 120.74 57.2152 119.684 57.2152C118.628 57.2152 117.613 56.8087 116.852 56.0812C116.487 55.7254 116.197 55.301 115.999 54.8327C115.801 54.3644 115.699 53.8617 115.699 53.3538C115.699 52.846 115.801 52.3433 115.999 51.875C116.197 51.4067 116.487 50.9823 116.852 50.6265ZM118.013 55.087C118.23 55.3091 118.489 55.4857 118.776 55.6063C119.064 55.7269 119.372 55.789 119.684 55.789C119.995 55.789 120.304 55.7269 120.591 55.6063C120.878 55.4857 121.138 55.3091 121.355 55.087C121.796 54.6176 122.041 53.9997 122.041 53.358C122.041 52.7162 121.796 52.0983 121.355 51.6289C121.138 51.4062 120.878 51.2291 120.591 51.1081C120.304 50.9872 119.996 50.9248 119.684 50.9248C119.372 50.9248 119.063 50.9872 118.776 51.1081C118.489 51.2291 118.229 51.4062 118.013 51.6289C117.572 52.0983 117.327 52.7162 117.327 53.358C117.327 53.9997 117.572 54.6176 118.013 55.087Z" fill="#333333"/>
<path d="M131.274 57.0556H129.702V51.0797H127.552V51.9272C127.563 52.8056 127.506 53.6835 127.38 54.5531C127.267 55.2574 127.098 55.8004 126.874 56.1823C126.699 56.5098 126.44 56.7859 126.124 56.9829C125.823 57.145 125.484 57.2259 125.141 57.2176C124.984 57.2173 124.828 57.2008 124.675 57.1683C124.557 57.146 124.441 57.1158 124.327 57.0779L124.203 57.0357V55.5215C124.369 55.5881 124.546 55.6247 124.725 55.6295C124.847 55.6345 124.968 55.615 125.082 55.572C125.196 55.529 125.3 55.4635 125.388 55.3794C125.558 55.2127 125.699 54.8493 125.813 54.289C125.926 53.7287 125.984 52.9461 125.984 51.9413V49.65H131.278L131.274 57.0556Z" fill="#333333"/>
<path d="M132.722 55.6269C132.75 55.5999 132.79 55.5553 132.841 55.4954C132.943 55.3638 133.036 55.2258 133.12 55.0823C133.26 54.8568 133.379 54.6191 133.475 54.3721C133.598 54.0314 133.69 53.6807 133.752 53.3239C133.837 52.8623 133.879 52.394 133.877 51.9248V49.6476H138.963V55.6269H139.859V58.5861H138.282V57.0554H133.881V58.5884H132.308V55.6269H132.722ZM135.325 53.3192C135.265 53.6801 135.169 54.034 135.037 54.3756C134.941 54.6148 134.829 54.8477 134.703 55.0729C134.622 55.2218 134.528 55.3632 134.421 55.4954L134.292 55.6246H137.384V51.0796H135.443V51.9271C135.445 52.3945 135.406 52.8612 135.325 53.3216V53.3192Z" fill="#333333"/>
<path d="M146.066 57.0556V52.351L142.453 57.0556H141.086V49.65H142.657V54.3594L146.272 49.65H147.634V57.0556H146.066Z" fill="#333333"/>
<path d="M155.759 57.0556H154.188V54.0389H151.045V57.0556H149.468V49.65H151.045V52.6139H154.188V49.65H155.759V57.0556Z" fill="#333333"/>
<path d="M157.589 49.65H162.57V51.0797H159.166V57.0556H157.589V49.65Z" fill="#333333"/>
<path d="M51.9064 61.1329C49.8916 61.4459 47.8965 61.6752 45.921 61.8207C69.1304 57.8357 87.4261 41.6878 84.6463 26.5622C81.8665 11.4367 60.8005 2.40551 37.59 6.38938C15.6558 10.1549 -0.330893 24.197 0.322059 38.5009C0.310231 38.4328 0.291304 38.3671 0.279476 38.299C-2.52159 21.6534 16.0497 4.90218 41.7561 0.876056C67.4625 -3.15007 90.5844 7.07722 93.3866 23.717C96.1889 40.3567 77.6164 57.108 51.9064 61.1329ZM75.2093 30.0203C73.0292 16.8197 55.0174 8.70763 34.9817 11.9015C14.9461 15.0954 0.473469 28.384 2.65707 41.5845C2.66654 41.6385 2.68073 41.6901 2.69019 41.7441C2.18155 30.4017 14.6373 19.2612 31.7312 16.2727C49.8187 13.1141 66.2418 20.2789 68.4018 32.2798C70.5617 44.2807 57.6612 56.5692 39.5749 59.7302C59.0972 58.9849 77.3964 43.2208 75.2128 30.0203H75.2093ZM34.4731 54.5819C34.0212 54.6594 33.1506 54.7733 32.0931 54.9341C32.1617 57.5164 32.5947 60.3535 34.0508 61.2961C29.2554 62.3525 26.103 62.0473 24.1501 61.5308C19.9579 60.3699 18.6189 55.6231 25.0597 53.2098C26.4543 52.6874 28.1979 52.2179 30.0562 51.7766C30.0479 51.6592 30.0408 51.55 30.0337 51.4467C29.8267 48.7646 29.0519 46.5074 27.0848 46.0473C27.0552 46.0402 27.0446 46.0332 27.0434 46.0273C20.8179 44.6751 15.353 40.3931 15.353 35.165H46.8721C46.8721 40.3966 41.4072 44.6728 35.1816 46.0273C35.1816 46.0332 35.1698 46.0402 35.1402 46.0473C33.2133 46.4957 32.4279 48.6731 32.2031 51.2848C35.6785 50.5136 39.2401 49.8046 41.4781 49.0029C53.6536 44.6434 54.1279 36.887 51.9916 32.7259C48.9776 26.8569 37.3735 22.2978 28.0015 26.27C26.9275 32.139 19.5522 31.4218 19.5522 31.4218C18.3693 25.9495 27.7271 20.8905 35.0574 20.597C46.4675 20.1392 53.2549 24.4999 56.3352 28.1762C59.0168 31.3772 59.62 35.658 58.6832 39.0479C56.4132 47.2633 48.3602 52.1862 34.4731 54.5819ZM30.1189 55.2663C26.944 55.8532 23.2984 56.845 23.1281 58.5071C23.0098 59.6304 24.7474 60.8547 28.1849 61.289C29.5724 60.3758 30.0231 57.7512 30.1189 55.2627V55.2663Z" fill="#F5333F"/>
</g>
<defs>
<clipPath id="clip0">
<rect width="240" height="62" fill="white"/>
</clipPath>
</defs>
</svg>
